<?xml version="1.0" encoding="utf-8"?>
<!-- Generator: Adobe Illustrator 21.1.0, SVG Export Plug-In . SVG Version: 6.00 Build 0)  -->
<svg version="1.1" xmlns="http://www.w3.org/2000/svg" xmlns:xlink="http://www.w3.org/1999/xlink" x="0px" y="0px"
	 viewBox="0 0 395.6 395.6" style="enable-background:new 0 0 395.6 395.6;" xml:space="preserve">
<style type="text/css">
	.st0{fill:#FFFFFF;}
	.st1{fill:#F44336;}
</style>
<g id="Ebene_2">
</g>
<g id="Layer_1">
	<g>
		<path class="st0" d="M197.8,395.6C89,395.6,0,306.6,0,197.8S89,0,197.8,0s197.8,89,197.8,197.8S306.6,395.6,197.8,395.6z
			 M197.8,12.3c-102,0-185.5,83.5-185.5,185.5s83.5,185.5,185.5,185.5l0,0c102,0,185.5-83.5,185.5-185.5S299.8,12.3,197.8,12.3z"/>
		<path class="st0" d="M197.8,364.7c-92.1,0-166.9-74.8-166.9-166.9S105.7,30.9,197.8,30.9s166.9,74.8,166.9,166.9
			S289.9,364.7,197.8,364.7z"/>
		<g>
			<g>
				<rect x="150.8" y="315.3" class="st1" width="12.3" height="12.3"/>
				<rect x="191.6" y="315.3" class="st1" width="12.3" height="12.3"/>
				<rect x="232.4" y="315.3" class="st1" width="12.3" height="12.3"/>
			</g>
			<path class="st1" d="M275.6,155.5l-35.4-35.4l-42.3,42.3l-42.3-42.3l-35.4,35.4l42.3,42.3l-42.3,42.3l35.4,35.4l42.3-42.3
				l42.3,42.3l35.4-35.4l-42.3-42.3L275.6,155.5z M224.1,207l33.1,33.1l-17.1,17L207,224.1l-9.2-9.2l-9.2,9.2l-33.1,33.1l-17.1-17
				l33.1-33.1l9.2-9.2l-9.2-9.2l-33.1-33.1l17.1-17.1l33.1,33.1l9.2,9.2l9.2-9.2l33.1-33.1l17.1,17.1l-33.1,33.1l-9.2,9.2L224.1,207
				z"/>
		</g>
	</g>
</g>
</svg>
