<?xml version="1.0" encoding="utf-8"?>
<!-- Generator: Adobe Illustrator 21.1.0, SVG Export Plug-In . SVG Version: 6.00 Build 0)  -->
<svg version="1.1" xmlns="http://www.w3.org/2000/svg" xmlns:xlink="http://www.w3.org/1999/xlink" x="0px" y="0px"
	 viewBox="0 0 395.6 395.6" style="enable-background:new 0 0 395.6 395.6;" xml:space="preserve">
<style type="text/css">
	.st0{fill:#FFFFFF;}
	.st1{fill:#4CAF50;}
</style>
<g id="Ebene_2">
</g>
<g id="Layer_1">
	<g>
		<path class="st0" d="M197.8,395.6C89,395.6,0,306.6,0,197.8S89,0,197.8,0s197.8,89,197.8,197.8S306.6,395.6,197.8,395.6z
			 M197.8,12.3c-102,0-185.5,83.5-185.5,185.5s83.5,185.5,185.5,185.5l0,0c102,0,185.5-83.5,185.5-185.5S299.8,12.3,197.8,12.3z"/>
		<path class="st0" d="M197.8,364.7c-92.1,0-166.9-74.8-166.9-166.9S105.7,30.9,197.8,30.9s166.9,74.8,166.9,166.9
			S289.9,364.7,197.8,364.7z"/>
		<polygon class="st0" points="259,129.2 176.2,212.7 136.6,173.1 109.4,199.7 149,239.3 155.2,246 176.2,266.4 202.7,239.3 
			286.2,156.4 		"/>
		<g>
			<path class="st1" d="M176.2,275.1l-75.4-75.4l35.9-35.9l39.6,39.6l83.5-83.5l35.9,35.9L176.2,275.1z M118,199.7l57.5,57.5
				l101.4-101.4L259,137.9l-82.9,83.4l-39.6-39.6L118,199.7z"/>
			<rect x="150.8" y="315.3" class="st1" width="12.3" height="12.3"/>
			<rect x="191.6" y="315.3" class="st1" width="12.3" height="12.3"/>
			<rect x="232.4" y="315.3" class="st1" width="12.3" height="12.3"/>
		</g>
	</g>
</g>
</svg>
